<?xml version="1.0" standalone="no"?>
<!DOCTYPE svg PUBLIC "-//W3C//DTD SVG 20010904//EN"
 "http://www.w3.org/TR/2001/REC-SVG-20010904/DTD/svg10.dtd">
<svg version="1.0" xmlns="http://www.w3.org/2000/svg"
 width="16.000000pt" height="16.000000pt" viewBox="0 0 16.000000 16.000000"
 preserveAspectRatio="xMidYMid meet">
<metadata>
Created by potrace 1.11, written by Peter Selinger 2001-2013
</metadata>
<g transform="translate(0.000000,16.000000) scale(0.013008,-0.013008)"
fill="#000000" stroke="none">
<path d="M426 1095 c-18 -33 -22 -35 -70 -35 -177 0 -219 -74 -220 -385 -1
-329 34 -393 218 -401 45 -1 84 -3 87 -3 4 -1 7 -31 8 -67 1 -74 5 -84 30 -84
22 0 115 68 181 131 34 32 56 44 90 50 125 21 199 42 232 68 38 30 50 92 52
265 3 175 -6 264 -30 306 -16 27 -70 60 -99 60 -7 0 -19 15 -25 34 -18 55 -30
59 -81 25 -43 -29 -46 -30 -129 -24 -51 3 -93 12 -105 21 -39 29 -109 74 -115
74 -3 0 -14 -16 -24 -35z m239 -170 c39 -4 81 -8 95 -10 59 -6 117 -18 141
-31 40 -20 49 -61 46 -213 -1 -107 -6 -142 -18 -162 -16 -24 -67 -45 -129 -55
-14 -2 -39 -6 -57 -9 -18 -3 -89 -8 -159 -10 -175 -7 -197 8 -213 143 -12 103
-2 264 20 304 28 52 93 63 274 43z"/>
<path d="M840 790 c-6 -3 -25 -49 -44 -101 -19 -52 -39 -107 -45 -122 -11 -28
-10 -28 20 -25 25 2 34 10 44 38 8 19 27 72 44 117 17 45 31 87 31 92 0 10
-34 11 -50 1z"/>
<path d="M558 603 c-38 -10 -27 -63 13 -63 28 0 43 35 23 54 -8 9 -16 15 -17
15 -1 -1 -9 -3 -19 -6z"/>
<path d="M650 595 c-16 -19 5 -55 30 -55 22 0 42 30 32 46 -12 18 -50 23 -62
9z"/>
</g>
</svg>
